<svg width="87" height="84" viewBox="0 0 87 84" fill="none" xmlns="http://www.w3.org/2000/svg">
<path d="M86.9633 43.5001C86.9633 69.5001 67.9633 86.0001 42.9633 83.5001C17.9633 81.0001 -5.03668 70.0001 0.963318 43.5001C6.96332 17.0001 21.9633 -4.58804e-05 44.4633 0C66.9633 4.58805e-05 86.9633 17.5001 86.9633 43.5001Z" fill="#B8B8B8"/>
<g filter="url(#filter0_f_701_113)">
<ellipse cx="15.4633" cy="50.5001" rx="7.5" ry="5" fill="#F3FF68"/>
</g>
<g filter="url(#filter1_f_701_113)">
<ellipse cx="70.4633" cy="50.5001" rx="7.5" ry="5" fill="#F2FE69"/>
</g>
<line x1="24.9588" y1="32.9424" x2="36.8118" y2="31.0699" stroke="black"/>
<path d="M61.1148 37L48 41.8992" stroke="black" stroke-linecap="round"/>
<path d="M61.1148 46.8992L48 42" stroke="black" stroke-linecap="round"/>
<path d="M24 37L38 41.8992" stroke="black" stroke-linecap="round"/>
<path d="M24 46.7983L38 41.8992" stroke="black" stroke-linecap="round"/>
<line x1="49.0665" y1="31.2845" x2="60.98" y2="32.7228" stroke="black"/>
<path d="M31.4236 50L43 59.3571L54.5764 50H31.4236Z" stroke="black"/>
<defs>
<filter id="filter0_f_701_113" x="3.96332" y="41.5001" width="23" height="18" filterUnits="userSpaceOnUse" color-interpolation-filters="sRGB">
<feFlood flood-opacity="0" result="BackgroundImageFix"/>
<feBlend mode="normal" in="SourceGraphic" in2="BackgroundImageFix" result="shape"/>
<feGaussianBlur stdDeviation="2" result="effect1_foregroundBlur_701_113"/>
</filter>
<filter id="filter1_f_701_113" x="58.9633" y="41.5001" width="23" height="18" filterUnits="userSpaceOnUse" color-interpolation-filters="sRGB">
<feFlood flood-opacity="0" result="BackgroundImageFix"/>
<feBlend mode="normal" in="SourceGraphic" in2="BackgroundImageFix" result="shape"/>
<feGaussianBlur stdDeviation="2" result="effect1_foregroundBlur_701_113"/>
</filter>
</defs>
</svg>
